<?xml version="1.0" encoding="UTF-8" standalone="no"?>
<!-- Created with Inkscape (http://www.inkscape.org/) -->

<svg
   width="210mm"
   height="297mm"
   viewBox="0 0 210 297"
   version="1.1"
   id="svg1"
   inkscape:version="1.3.2 (091e20e, 2023-11-25, custom)"
   sodipodi:docname="výkres.svg"
   xmlns:inkscape="http://www.inkscape.org/namespaces/inkscape"
   xmlns:sodipodi="http://sodipodi.sourceforge.net/DTD/sodipodi-0.dtd"
   xmlns="http://www.w3.org/2000/svg"
   xmlns:svg="http://www.w3.org/2000/svg">
  <sodipodi:namedview
     id="namedview1"
     pagecolor="#ffffff"
     bordercolor="#000000"
     borderopacity="0.25"
     inkscape:showpageshadow="2"
     inkscape:pageopacity="0.0"
     inkscape:pagecheckerboard="0"
     inkscape:deskcolor="#d1d1d1"
     inkscape:document-units="mm"
     inkscape:zoom="1.0469406"
     inkscape:cx="406.42228"
     inkscape:cy="1449.4614"
     inkscape:window-width="1920"
     inkscape:window-height="991"
     inkscape:window-x="-9"
     inkscape:window-y="-9"
     inkscape:window-maximized="1"
     inkscape:current-layer="layer1" />
  <defs
     id="defs1" />
  <g
     inkscape:label="Vrstva 1"
     inkscape:groupmode="layer"
     id="layer1">
    <circle
       style="fill:#ed1870;fill-opacity:1;stroke-width:0.264583"
       id="path1"
       cx="20.014444"
       cy="15.964387"
       r="14.117328" />
    <circle
       style="fill:#ed1870;fill-opacity:1;stroke-width:0.264583"
       id="path1-6"
       cx="48.2491"
       cy="44.199047"
       r="14.117328" />
    <rect
       style="fill:#ed1870;fill-opacity:1;stroke-width:0.264583"
       id="rect1"
       width="11.972923"
       height="35.918774"
       x="-3.0275788"
       y="31.332281"
       transform="rotate(-45)" />
    <circle
       style="fill:#ed1870;fill-opacity:1;stroke-width:0.264583"
       id="path1-7"
       cx="20.014425"
       cy="86.98732"
       r="14.117328" />
    <circle
       style="fill:#ed1870;fill-opacity:1;stroke-width:0.264583"
       id="path1-6-7"
       cx="48.2491"
       cy="115.22198"
       r="14.117328" />
    <path
       id="path1-5-1"
       style="fill:#ed1870;fill-opacity:1;stroke-width:0.264583"
       d="m 18.084559,152.5148 c -7.79671,2e-4 -14.1170653,6.32078 -14.1169753,14.11749 -9e-5,7.7967 6.3202653,14.11728 14.1169753,14.11748 1.66676,-0.0123 3.2981,-1.39777 4.87774,-0.90795 4.56905,1.41678 8.73091,5.57865 10.1477,10.1477 0.48982,1.57964 -0.89563,3.21097 -0.90795,4.87774 2e-4,7.7967 6.32078,14.11704 14.11748,14.11696 7.7965,-2e-4 14.11677,-6.32046 14.11697,-14.11696 9e-5,-7.79671 -6.32026,-14.11729 -14.11697,-14.11749 -1.59677,0.0114 -3.16994,1.30991 -4.6824,0.83458 -4.61868,-1.45157 -8.81891,-5.65141 -10.27018,-10.27018 -0.4752,-1.51236 0.8235,-3.08526 0.8351,-4.68188 9e-5,-7.79691 -6.32058,-14.11758 -14.11749,-14.11749 z"
       sodipodi:nodetypes="cccssccccsscc" />
    <circle
       style="opacity:1;fill:#ed1870;fill-opacity:1;stroke-width:0.264583"
       id="path1-7-8"
       cx="18.084562"
       cy="166.63243"
       r="14.117328" />
    <circle
       style="opacity:1;fill:#ed1870;fill-opacity:1;stroke-width:0.264583"
       id="path1-6-7-5"
       cx="46.319233"
       cy="194.8671"
       r="14.117328" />
    <path
       id="path1-5-1-2"
       style="fill:#ed1870;fill-opacity:1;stroke-width:0.264583"
       d="m 46.319231,327.04356 c -7.79671,2e-4 -14.117065,6.32078 -14.116975,14.11749 -9e-5,7.7967 6.320265,14.11728 14.116975,14.11748 1.66676,-0.0123 3.2981,-1.39777 4.87774,-0.90795 4.56905,1.41678 8.73091,5.57865 10.1477,10.1477 0.48982,1.57964 -0.89563,3.21097 -0.90795,4.87774 2e-4,7.7967 6.32078,14.11704 14.11748,14.11696 7.7965,-2e-4 14.11677,-6.32046 14.11697,-14.11696 9e-5,-7.79671 -6.32026,-14.11729 -14.11697,-14.11749 -1.59677,0.0114 -3.16994,1.30991 -4.6824,0.83458 -4.61868,-1.45157 -8.81891,-5.65141 -10.27018,-10.27018 -0.4752,-1.51236 0.8235,-3.08526 0.8351,-4.68188 9e-5,-7.79691 -6.32058,-14.11758 -14.11749,-14.11749 z"
       sodipodi:nodetypes="cccssccccsscc"
       inkscape:export-filename="logo.png"
       inkscape:export-xdpi="96"
       inkscape:export-ydpi="96" />
    <circle
       style="fill:#ed1870;fill-opacity:1;stroke-width:0.264583"
       id="path1-7-8-50"
       cx="46.319233"
       cy="341.16119"
       r="14.117328" />
    <circle
       style="fill:#ed1870;fill-opacity:1;stroke-width:0.264583"
       id="path1-6-7-5-5"
       cx="74.553909"
       cy="369.39584"
       r="14.117328" />
    <path
       id="path1-5-1-5"
       style="fill:#000000;fill-opacity:1;stroke-width:0.264583"
       d="m 79.056574,148.5 c -7.79671,2e-4 -14.11707,6.32078 -14.11698,14.11749 -9e-5,7.7967 6.32027,14.11728 14.11698,14.11748 1.66676,-0.0123 3.2981,-1.39777 4.87774,-0.90795 4.56905,1.41678 8.73091,5.57865 10.1477,10.1477 0.48982,1.57964 -0.89563,3.21097 -0.90795,4.87774 2e-4,7.7967 6.32078,14.11704 14.117476,14.11696 7.7965,-2e-4 14.11677,-6.32046 14.11697,-14.11696 9e-5,-7.79671 -6.32026,-14.11729 -14.11697,-14.11749 -1.59677,0.0114 -3.16994,1.30991 -4.6824,0.83458 -4.618676,-1.45157 -8.818906,-5.65141 -10.270176,-10.27018 -0.4752,-1.51236 0.8235,-3.08526 0.8351,-4.68188 9e-5,-7.79691 -6.32058,-14.11758 -14.11749,-14.11749 z"
       sodipodi:nodetypes="cccssccccsscc" />
    <circle
       style="fill:#ed1870;fill-opacity:1;stroke-width:0.264583"
       id="path1-7-8-5"
       cx="79.056572"
       cy="162.61765"
       r="14.117328" />
    <circle
       style="fill:#ed1870;fill-opacity:1;stroke-width:0.264583"
       id="path1-6-7-5-7"
       cx="107.29124"
       cy="190.85231"
       r="14.117328" />
    <path
       id="path1-5-1-5-9"
       style="fill:#000000;fill-opacity:1;stroke-width:0.264583"
       d="m 145.87022,148.5 c -7.79671,2e-4 -14.11707,6.32078 -14.11698,14.11749 -9e-5,7.7967 6.32027,14.11728 14.11698,14.11748 1.66676,-0.0123 3.2981,-1.39777 4.87774,-0.90795 4.56905,1.41678 8.73091,5.57865 10.1477,10.1477 0.48982,1.57964 -0.89563,3.21097 -0.90795,4.87774 2e-4,7.7967 6.32078,14.11704 14.11748,14.11696 7.7965,-2e-4 14.11677,-6.32046 14.11697,-14.11696 9e-5,-7.79671 -6.32026,-14.11729 -14.11697,-14.11749 -1.59677,0.0114 -3.16994,1.30991 -4.6824,0.83458 -4.61868,-1.45157 -8.81891,-5.65141 -10.27018,-10.27018 -0.4752,-1.51236 0.8235,-3.08526 0.8351,-4.68188 9e-5,-7.79691 -6.32058,-14.11758 -14.11749,-14.11749 z"
       sodipodi:nodetypes="cccssccccsscc" />
    <path
       id="path1-5-1-5-9-6"
       style="fill:#000000;fill-opacity:1;stroke-width:0.264583"
       d="m 18.084776,355.27844 c -7.79671,2e-4 -14.1170701,6.32078 -14.1169801,14.11749 -9e-5,7.7967 6.3202701,14.11728 14.1169801,14.11748 1.66676,-0.0123 3.2981,-1.39777 4.87774,-0.90795 4.56905,1.41678 8.73091,5.57865 10.1477,10.1477 0.48982,1.57964 -0.89563,3.21097 -0.90795,4.87774 2e-4,7.7967 6.32078,14.11704 14.11748,14.11696 7.7965,-2e-4 14.11677,-6.32046 14.11697,-14.11696 9e-5,-7.79671 -6.32026,-14.11729 -14.11697,-14.11749 -1.59677,0.0114 -3.16994,1.30991 -4.6824,0.83458 -4.61868,-1.45157 -8.81891,-5.65141 -10.27018,-10.27018 -0.4752,-1.51236 0.8235,-3.08526 0.8351,-4.68188 9e-5,-7.79691 -6.32058,-14.11758 -14.11749,-14.11749 z"
       sodipodi:nodetypes="cccssccccsscc" />
    <circle
       style="fill:#000000;fill-opacity:1;stroke-width:0.264583"
       id="path1-7-8-5-1"
       cx="145.87021"
       cy="162.61765"
       r="14.117328" />
    <circle
       style="fill:#ed1870;fill-opacity:1;stroke-width:0.264583"
       id="path1-6-7-5-7-4"
       cx="174.10487"
       cy="190.85231"
       r="14.117328" />
    <path
       id="path1-5-1-5-9-4"
       style="fill:#000000;fill-opacity:1;stroke-width:0.264583"
       d="m 216.43123,144.84465 c -7.79671,2e-4 -14.11707,6.32078 -14.11698,14.11749 -9e-5,7.7967 6.32027,14.11728 14.11698,14.11748 1.66676,-0.0123 3.2981,-1.39777 4.87774,-0.90795 4.56905,1.41678 8.73091,5.57865 10.1477,10.1477 0.48982,1.57964 -0.89563,3.21097 -0.90795,4.87774 2e-4,7.7967 6.32078,14.11704 14.11748,14.11696 7.7965,-2e-4 14.11677,-6.32046 14.11697,-14.11696 9e-5,-7.79671 -6.32026,-14.11729 -14.11697,-14.11749 -1.59677,0.0114 -3.16994,1.30991 -4.6824,0.83458 -4.61868,-1.45157 -8.81891,-5.65141 -10.27018,-10.27018 -0.4752,-1.51236 0.8235,-3.08526 0.8351,-4.68188 9e-5,-7.79691 -6.32058,-14.11758 -14.11749,-14.11749 z"
       sodipodi:nodetypes="cccssccccsscc" />
    <circle
       style="fill:#ed1870;fill-opacity:1;stroke-width:0.264583"
       id="path1-7-8-5-1-1"
       cx="216.43121"
       cy="158.9623"
       r="14.117328" />
    <circle
       style="fill:#000000;fill-opacity:1;stroke-width:0.264583"
       id="path1-6-7-5-7-4-0"
       cx="244.66588"
       cy="187.19696"
       r="14.117328" />
    <path
       id="path1-5-1-5-9-4-7"
       style="fill:#ed1870;fill-opacity:1;stroke-width:0.264583"
       d="m 286.99223,144.84465 c -7.79671,2e-4 -14.11707,6.32078 -14.11698,14.11749 -9e-5,7.7967 6.32027,14.11728 14.11698,14.11748 1.66676,-0.0123 3.2981,-1.39777 4.87774,-0.90795 4.56905,1.41678 8.73091,5.57865 10.1477,10.1477 0.48982,1.57964 -0.89563,3.21097 -0.90795,4.87774 2e-4,7.7967 6.32078,14.11704 14.11748,14.11696 7.7965,-2e-4 14.11677,-6.32046 14.11697,-14.11696 9e-5,-7.79671 -6.32026,-14.11729 -14.11697,-14.11749 -1.59677,0.0114 -3.16994,1.30991 -4.6824,0.83458 -4.61868,-1.45157 -8.81891,-5.65141 -10.27018,-10.27018 -0.4752,-1.51236 0.8235,-3.08526 0.8351,-4.68188 9e-5,-7.79691 -6.32058,-14.11758 -14.11749,-14.11749 z"
       sodipodi:nodetypes="cccssccccsscc" />
    <circle
       style="fill:#ed1870;fill-opacity:1;stroke-width:0.264583"
       id="path1-7-8-5-1-1-7"
       cx="286.99222"
       cy="158.9623"
       r="14.117328" />
    <circle
       style="fill:#000000;fill-opacity:1;stroke-width:0.264583"
       id="path1-6-7-5-7-4-0-5"
       cx="315.22687"
       cy="187.19696"
       r="14.117328" />
    <circle
       style="fill:#000000;fill-opacity:1;stroke-width:0.264583"
       id="path1-6-7-5-7-4-0-5-0"
       cx="46.319248"
       cy="397.63049"
       r="14.117328" />
    <circle
       style="fill:#000000;fill-opacity:1;stroke-width:0.264583"
       id="path1-6-7-5-7-4-0-5-0-5"
       cx="18.084776"
       cy="369.39609"
       r="14.117328" />
    <path
       id="path1-5-1-2-8"
       style="fill:#ed1870;fill-opacity:1;stroke-width:0.264583"
       d="m 159.2575,327.04357 c -7.79671,2e-4 -14.11707,6.32078 -14.11698,14.11749 -9e-5,7.7967 6.32027,14.11728 14.11698,14.11748 1.66676,-0.0123 3.2981,-1.39777 4.87774,-0.90795 4.56905,1.41678 8.73091,5.57865 10.1477,10.1477 0.48982,1.57964 -0.89563,3.21097 -0.90795,4.87774 2e-4,7.7967 6.32078,14.11704 14.11748,14.11696 7.7965,-2e-4 14.11677,-6.32046 14.11697,-14.11696 9e-5,-7.79671 -6.32026,-14.11729 -14.11697,-14.11749 -1.59677,0.0114 -3.16994,1.30991 -4.6824,0.83458 -4.61868,-1.45157 -8.81891,-5.65141 -10.27018,-10.27018 -0.4752,-1.51236 0.8235,-3.08526 0.8351,-4.68188 9e-5,-7.79691 -6.32058,-14.11758 -14.11749,-14.11749 z"
       sodipodi:nodetypes="cccssccccsscc"
       inkscape:export-filename="logo_dark.svg"
       inkscape:export-xdpi="96"
       inkscape:export-ydpi="96" />
    <path
       id="path1-7-8-50-6"
       style="fill:#ed1870;stroke-width:0.264583"
       d="m 173.37484,341.16119 a 14.117328,14.117328 0 0 1 -14.11733,14.11733 14.117328,14.117328 0 0 1 -14.11733,-14.11733 14.117328,14.117328 0 0 1 14.11733,-14.11732 14.117328,14.117328 0 0 1 14.11733,14.11732 z" />
    <path
       id="path1-6-7-5-5-6"
       style="fill:#ed1870;stroke-width:0.264583"
       d="m 201.6095,369.39584 a 14.117328,14.117328 0 0 1 -14.11733,14.11733 14.117328,14.117328 0 0 1 -14.11733,-14.11733 14.117328,14.117328 0 0 1 14.11733,-14.11732 14.117328,14.117328 0 0 1 14.11733,14.11732 z" />
    <path
       id="path1-5-1-5-9-6-9"
       style="fill:#dddddd;fill-opacity:1;stroke-width:0.264583"
       d="m 131.02305,355.27845 c -7.79671,2e-4 -14.11707,6.32078 -14.11698,14.11749 -9e-5,7.7967 6.32027,14.11728 14.11698,14.11748 1.66676,-0.0123 3.2981,-1.39777 4.87774,-0.90795 4.56905,1.41678 8.7309,5.57865 10.14769,10.1477 0.48982,1.57964 -0.89563,3.21097 -0.90795,4.87774 2e-4,7.7967 6.32078,14.11704 14.11748,14.11696 7.7965,-2e-4 14.11677,-6.32046 14.11697,-14.11696 9e-5,-7.79671 -6.32026,-14.11729 -14.11697,-14.11749 -1.59677,0.0114 -3.16994,1.30991 -4.6824,0.83458 -4.61868,-1.45157 -8.81891,-5.65141 -10.27018,-10.27018 -0.4752,-1.51236 0.8235,-3.08526 0.8351,-4.68188 9e-5,-7.79691 -6.32057,-14.11758 -14.11748,-14.11749 z"
       sodipodi:nodetypes="cccssccccsscc" />
    <circle
       style="fill:#dddddd;fill-opacity:1;stroke-width:0.264583"
       id="path1-6-7-5-7-4-0-5-0-9"
       cx="159.25751"
       cy="397.63049"
       r="14.117328" />
    <circle
       style="fill:#dddddd;fill-opacity:1;stroke-width:0.264583"
       id="path1-6-7-5-7-4-0-5-0-5-4"
       cx="131.02304"
       cy="369.39609"
       r="14.117328" />
    <rect
       style="fill:#ed1870;fill-opacity:1;stroke-width:0.264583"
       id="rect1-2"
       width="11.972923"
       height="35.918774"
       x="-53.248375"
       y="81.553078"
       transform="rotate(-45)" />
    <path
       id="path1-5"
       style="fill:#ed1870;fill-opacity:1;stroke-width:0.264583"
       d="m 84.561285,1.847009 c -7.79671,1.98e-4 -14.11705,6.3207788 -14.11696,14.117485 -9e-5,7.796706 6.32025,14.117286 14.11696,14.117484 1.66676,-0.01233 3.2981,-1.397774 4.87774,-0.907955 4.56905,1.416783 8.73091,5.578649 10.1477,10.147701 0.489815,1.579641 -0.89563,3.210975 -0.90795,4.877739 2e-4,7.796703 6.320775,14.117051 14.117475,14.116967 7.7965,-1.98e-4 14.11677,-6.320463 14.11697,-14.116967 9e-5,-7.796706 -6.32026,-14.117287 -14.11697,-14.117485 -1.59677,0.01138 -3.16994,1.309913 -4.6824,0.834575 -4.61868,-1.451564 -8.818905,-5.651404 -10.270175,-10.270175 -0.4752,-1.51236 0.8235,-3.08526 0.8351,-4.681884 9e-5,-7.7969102 -6.32058,-14.117574 -14.11749,-14.117485 z"
       sodipodi:nodetypes="cccssccccsscc" />
  </g>
</svg>
